HIERARCHY
ROOT newVegas:Hips
{
	OFFSET 0.000000 96.479958 0.000000
	CHANNELS 6 Xposition Yposition Zposition Xrotation Yrotation Zrotation
	JOINT newVegas:Pelvis
	{
		OFFSET 0.000000 0.000000 0.000000
		CHANNELS 3 Xrotation Yrotation Zrotation
		JOINT newVegas:LeftUpLeg
		{
			OFFSET 18.735201 -5.666702 -4.541200
			CHANNELS 3 Xrotation Yrotation Zrotation
			JOINT newVegas:LeftLeg
			{
				OFFSET -0.021200 -31.938179 0.493100
				CHANNELS 3 Xrotation Yrotation Zrotation
				JOINT newVegas:LeftFoot
				{
					OFFSET 0.021200 -31.938179 -4.336299
					CHANNELS 3 Xrotation Yrotation Zrotation
					JOINT newVegas:LeftToeBase
					{
						OFFSET 0.943001 -26.722000 15.023500
						CHANNELS 3 Xrotation Yrotation Zrotation
						End Site
						{
							OFFSET 0.000000 30.670183 0.000000
						}
					}
				}
				JOINT newVegas:Left_PantLeg
				{
					OFFSET 0.663870 -9.044666 -1.108900
					CHANNELS 3 Xrotation Yrotation Zrotation
					End Site
					{
						OFFSET 1.415995 20.635357 0.000000
					}
				}
			}
		}
		JOINT newVegas:RightUpLeg
		{
			OFFSET -18.735201 -5.666702 -4.541200
			CHANNELS 3 Xrotation Yrotation Zrotation
			JOINT newVegas:RightLeg
			{
				OFFSET 0.018946 -31.938133 0.493100
				CHANNELS 3 Xrotation Yrotation Zrotation
				JOINT newVegas:RightFoot
				{
					OFFSET -0.018946 -31.938126 -4.336299
					CHANNELS 3 Xrotation Yrotation Zrotation
					JOINT newVegas:RightToeBase
					{
						OFFSET -0.943001 -26.722004 15.023500
						CHANNELS 3 Xrotation Yrotation Zrotation
						End Site
						{
							OFFSET 0.000000 30.670187 0.000000
						}
					}
				}
				JOINT newVegas:Right_PantLeg
				{
					OFFSET -0.661674 -9.044716 -1.108900
					CHANNELS 3 Xrotation Yrotation Zrotation
					End Site
					{
						OFFSET -1.415958 20.635269 0.000000
					}
				}
			}
		}
	}
	JOINT newVegas:Spine
	{
		OFFSET 0.000000 10.199997 -0.299500
		CHANNELS 3 Xrotation Yrotation Zrotation
		JOINT newVegas:Spine1
		{
			OFFSET 0.000000 11.900002 -1.516600
			CHANNELS 3 Xrotation Yrotation Zrotation
			JOINT newVegas:Spine2
			{
				OFFSET 0.000000 13.600006 -2.842500
				CHANNELS 3 Xrotation Yrotation Zrotation
				JOINT newVegas:Neck
				{
					OFFSET 0.000000 9.624100 -2.890100
					CHANNELS 3 Xrotation Yrotation Zrotation
					JOINT newVegas:Head
					{
						OFFSET 0.000000 14.068802 -1.351900
						CHANNELS 3 Xrotation Yrotation Zrotation
						JOINT newVegas:Hair_Back
						{
							OFFSET 0.000000 3.231903 -17.524799
							CHANNELS 3 Xrotation Yrotation Zrotation
							End Site
							{
								OFFSET 0.000000 19.849884 0.000000
							}
						}
						JOINT newVegas:Hair_Front
						{
							OFFSET 0.000000 31.260406 4.573800
							CHANNELS 3 Xrotation Yrotation Zrotation
							JOINT newVegas:Hair_Front1
							{
								OFFSET 0.000000 2.284103 11.993300
								CHANNELS 3 Xrotation Yrotation Zrotation
								JOINT newVegas:Hair_Front2
								{
									OFFSET 0.000000 2.284103 11.993300
									CHANNELS 3 Xrotation Yrotation Zrotation
									End Site
									{
										OFFSET 0.000000 12.208862 0.000000
									}
								}
							}
						}
						JOINT newVegas:Jowel
						{
							OFFSET 0.000000 -7.458206 6.864100
							CHANNELS 3 Xrotation Yrotation Zrotation
							End Site
							{
								OFFSET 0.000000 19.849884 0.000000
							}
						}
					}
				}
				JOINT newVegas:LeftShoulder
				{
					OFFSET 15.263000 10.923401 -0.547700
					CHANNELS 3 Xrotation Yrotation Zrotation
					JOINT newVegas:LeftArm
					{
						OFFSET 25.438599 -2.830597 -13.032500
						CHANNELS 3 Xrotation Yrotation Zrotation
						JOINT newVegas:LeftForeArm
						{
							OFFSET 29.960503 0.000000 0.000000
							CHANNELS 3 Xrotation Yrotation Zrotation
							JOINT newVegas:LeftHand
							{
								OFFSET 27.849251 0.000000 0.000000
								CHANNELS 3 Xrotation Yrotation Zrotation
								JOINT newVegas:LeftHandThumb1
								{
									OFFSET 4.487587 -3.305161 6.305391
									CHANNELS 3 Xrotation Yrotation Zrotation
									JOINT newVegas:LeftHandThumb2
									{
										OFFSET 5.480453 -3.164139 3.164143
										CHANNELS 3 Xrotation Yrotation Zrotation
										JOINT newVegas:LeftHandThumb3
										{
											OFFSET 5.159721 -2.978973 2.978967
											CHANNELS 3 Xrotation Yrotation Zrotation
											End Site
											{
												OFFSET 2.494507 5.926697 1.738678
											}
										}
									}
								}
								JOINT newVegas:LeftHandIndex1
								{
									OFFSET 18.578728 -0.527832 5.208049
									CHANNELS 3 Xrotation Yrotation Zrotation
									JOINT newVegas:LeftHandIndex2
									{
										OFFSET 3.192009 0.000000 0.000000
										CHANNELS 3 Xrotation Yrotation Zrotation
										JOINT newVegas:LeftHandIndex3
										{
											OFFSET 3.835129 0.000000 0.000000
											CHANNELS 3 Xrotation Yrotation Zrotation
											End Site
											{
												OFFSET -0.034599 3.816971 0.371180
											}
										}
									}
								}
								JOINT newVegas:LeftHandMiddle1
								{
									OFFSET 18.476105 0.000000 0.000000
									CHANNELS 3 Xrotation Yrotation Zrotation
									JOINT newVegas:LeftHandMiddle2
									{
										OFFSET 3.324875 0.000000 0.000000
										CHANNELS 3 Xrotation Yrotation Zrotation
										JOINT newVegas:LeftHandMiddle3
										{
											OFFSET 4.596550 0.000000 0.000000
											CHANNELS 3 Xrotation Yrotation Zrotation
											End Site
											{
												OFFSET 0.057701 4.578827 0.399218
											}
										}
									}
								}
								JOINT newVegas:LeftHandRing1
								{
									OFFSET 17.732719 0.121887 -4.201567
									CHANNELS 3 Xrotation Yrotation Zrotation
									JOINT newVegas:LeftHandRing2
									{
										OFFSET 2.733170 0.000000 0.000000
										CHANNELS 3 Xrotation Yrotation Zrotation
										JOINT newVegas:LeftHandRing3
										{
											OFFSET 3.178268 0.000000 0.000000
											CHANNELS 3 Xrotation Yrotation Zrotation
											End Site
											{
												OFFSET 0.119102 3.170624 0.185394
											}
										}
									}
								}
								JOINT newVegas:LeftHandPinky1
								{
									OFFSET 15.989624 -0.606689 -7.535461
									CHANNELS 3 Xrotation Yrotation Zrotation
									JOINT newVegas:LeftHandPinky2
									{
										OFFSET 2.538986 0.000000 0.000000
										CHANNELS 3 Xrotation Yrotation Zrotation
										JOINT newVegas:LeftHandPinky3
										{
											OFFSET 2.593102 0.000000 0.000000
											CHANNELS 3 Xrotation Yrotation Zrotation
											End Site
											{
												OFFSET -0.150902 2.584198 0.152708
											}
										}
									}
								}
							}
							JOINT newVegas:Left_Sleeve
							{
								OFFSET 0.267448 -0.649796 0.577675
								CHANNELS 3 Xrotation Yrotation Zrotation
								End Site
								{
									OFFSET 0.000000 15.991241 0.000000
								}
							}
							JOINT newVegas:Left_CapeC
							{
								OFFSET 15.715958 -8.608795 -6.935905
								CHANNELS 3 Xrotation Yrotation Zrotation
								JOINT newVegas:Left_CapeC1
								{
									OFFSET 0.000000 -8.688499 0.000000
									CHANNELS 3 Xrotation Yrotation Zrotation
									End Site
									{
										OFFSET 0.000000 8.688499 0.000000
									}
								}
							}
						}
						JOINT newVegas:Left_CapeB
						{
							OFFSET 26.118385 -8.608795 -7.079235
							CHANNELS 3 Xrotation Yrotation Zrotation
							JOINT newVegas:Left_CapeB1
							{
								OFFSET 0.000000 -8.688499 0.000000
								CHANNELS 3 Xrotation Yrotation Zrotation
								End Site
								{
									OFFSET 0.000000 8.688499 0.000000
								}
							}
						}
						JOINT newVegas:Left_CapeA
						{
							OFFSET 5.115639 -8.608795 -10.395809
							CHANNELS 3 Xrotation Yrotation Zrotation
							JOINT newVegas:Left_CapeA1
							{
								OFFSET 0.000000 -8.688499 0.000000
								CHANNELS 3 Xrotation Yrotation Zrotation
								End Site
								{
									OFFSET 0.000000 8.688499 0.000000
								}
							}
						}
					}
				}
				JOINT newVegas:RightShoulder
				{
					OFFSET -15.263000 10.923401 -0.547700
					CHANNELS 3 Xrotation Yrotation Zrotation
					JOINT newVegas:RightArm
					{
						OFFSET -25.438599 -2.830597 -13.032500
						CHANNELS 3 Xrotation Yrotation Zrotation
						JOINT newVegas:RightForeArm
						{
							OFFSET -29.960503 0.000000 0.000000
							CHANNELS 3 Xrotation Yrotation Zrotation
							JOINT newVegas:RightHand
							{
								OFFSET -27.849251 0.000000 0.000000
								CHANNELS 3 Xrotation Yrotation Zrotation
								JOINT newVegas:RightHandThumb1
								{
									OFFSET -4.487587 -3.305161 6.305391
									CHANNELS 3 Xrotation Yrotation Zrotation
									JOINT newVegas:RightHandThumb2
									{
										OFFSET -5.480453 -3.164139 3.164143
										CHANNELS 3 Xrotation Yrotation Zrotation
										JOINT newVegas:RightHandThumb3
										{
											OFFSET -5.159721 -2.978973 2.978967
											CHANNELS 3 Xrotation Yrotation Zrotation
											End Site
											{
												OFFSET -2.494507 5.926697 1.738678
											}
										}
									}
								}
								JOINT newVegas:RightHandIndex1
								{
									OFFSET -18.578728 -0.527832 5.208049
									CHANNELS 3 Xrotation Yrotation Zrotation
									JOINT newVegas:RightHandIndex2
									{
										OFFSET -3.192009 0.000000 0.000000
										CHANNELS 3 Xrotation Yrotation Zrotation
										JOINT newVegas:RightHandIndex3
										{
											OFFSET -3.835129 0.000000 0.000000
											CHANNELS 3 Xrotation Yrotation Zrotation
											End Site
											{
												OFFSET 0.034599 3.816971 0.371180
											}
										}
									}
								}
								JOINT newVegas:RightHandMiddle1
								{
									OFFSET -18.476105 0.000000 0.000000
									CHANNELS 3 Xrotation Yrotation Zrotation
									JOINT newVegas:RightHandMiddle2
									{
										OFFSET -3.324875 0.000000 0.000000
										CHANNELS 3 Xrotation Yrotation Zrotation
										JOINT newVegas:RightHandMiddle3
										{
											OFFSET -4.596550 0.000000 0.000000
											CHANNELS 3 Xrotation Yrotation Zrotation
											End Site
											{
												OFFSET -0.057701 4.578827 0.399218
											}
										}
									}
								}
								JOINT newVegas:RightHandRing1
								{
									OFFSET -17.732719 0.121887 -4.201567
									CHANNELS 3 Xrotation Yrotation Zrotation
									JOINT newVegas:RightHandRing2
									{
										OFFSET -2.733170 0.000000 0.000000
										CHANNELS 3 Xrotation Yrotation Zrotation
										JOINT newVegas:RightHandRing3
										{
											OFFSET -3.178268 0.000000 0.000000
											CHANNELS 3 Xrotation Yrotation Zrotation
											End Site
											{
												OFFSET -0.119102 3.170624 0.185394
											}
										}
									}
								}
								JOINT newVegas:RightHandPinky1
								{
									OFFSET -15.989624 -0.606689 -7.535461
									CHANNELS 3 Xrotation Yrotation Zrotation
									JOINT newVegas:RightHandPinky2
									{
										OFFSET -2.538986 0.000000 0.000000
										CHANNELS 3 Xrotation Yrotation Zrotation
										JOINT newVegas:RightHandPinky3
										{
											OFFSET -2.593102 0.000000 0.000000
											CHANNELS 3 Xrotation Yrotation Zrotation
											End Site
											{
												OFFSET 0.150902 2.584198 0.152708
											}
										}
									}
								}
							}
							JOINT newVegas:Right_CapeC
							{
								OFFSET -15.715958 -8.608795 -6.935905
								CHANNELS 3 Xrotation Yrotation Zrotation
								JOINT newVegas:Right_CapeC1
								{
									OFFSET 0.000000 -8.688499 0.000000
									CHANNELS 3 Xrotation Yrotation Zrotation
									End Site
									{
										OFFSET 0.000000 8.688499 0.000000
									}
								}
							}
							JOINT newVegas:Right_Sleeve
							{
								OFFSET -0.267448 -0.649994 0.577675
								CHANNELS 3 Xrotation Yrotation Zrotation
								End Site
								{
									OFFSET 0.000000 15.991302 0.000000
								}
							}
						}
						JOINT newVegas:Right_CapeA
						{
							OFFSET -5.115540 -8.608795 -10.395824
							CHANNELS 3 Xrotation Yrotation Zrotation
							JOINT newVegas:Right_CapeA1
							{
								OFFSET 0.000000 -8.688499 0.000000
								CHANNELS 3 Xrotation Yrotation Zrotation
								End Site
								{
									OFFSET 0.000000 8.688499 0.000000
								}
							}
						}
						JOINT newVegas:Right_CapeB
						{
							OFFSET -26.118187 -8.608795 -7.079266
							CHANNELS 3 Xrotation Yrotation Zrotation
							JOINT newVegas:Right_CapeB1
							{
								OFFSET 0.000000 -8.688499 0.000000
								CHANNELS 3 Xrotation Yrotation Zrotation
								End Site
								{
									OFFSET 0.000000 8.688499 0.000000
								}
							}
						}
					}
				}
				JOINT newVegas:Left_Collar
				{
					OFFSET 18.625099 8.655502 8.828100
					CHANNELS 3 Xrotation Yrotation Zrotation
					JOINT newVegas:Left_Collar1
					{
						OFFSET 14.783401 10.540405 -1.259500
						CHANNELS 3 Xrotation Yrotation Zrotation
						End Site
						{
							OFFSET 0.000000 18.199875 0.000000
						}
					}
				}
				JOINT newVegas:Collar_Back
				{
					OFFSET 0.000000 15.630707 -20.132601
					CHANNELS 3 Xrotation Yrotation Zrotation
					End Site
					{
						OFFSET 0.000000 22.523010 0.000000
					}
				}
				JOINT newVegas:Left_Peck
				{
					OFFSET 17.239599 -5.132599 25.482599
					CHANNELS 3 Xrotation Yrotation Zrotation
					End Site
					{
						OFFSET 0.000000 22.523010 0.000000
					}
				}
				JOINT newVegas:Right_Peck
				{
					OFFSET -17.239599 -5.132202 25.482599
					CHANNELS 3 Xrotation Yrotation Zrotation
					End Site
					{
						OFFSET 0.000000 22.523010 0.000000
					}
				}
				JOINT newVegas:Right_Collar
				{
					OFFSET -18.625099 8.655792 8.828100
					CHANNELS 3 Xrotation Yrotation Zrotation
					JOINT newVegas:Right_Collar1
					{
						OFFSET -14.783401 10.539993 -1.259500
						CHANNELS 3 Xrotation Yrotation Zrotation
						End Site
						{
							OFFSET 0.000000 18.199631 0.000000
						}
					}
				}
			}
		}
		JOINT newVegas:Belly
		{
			OFFSET 0.000000 -6.540398 9.014299
			CHANNELS 3 Xrotation Yrotation Zrotation
			End Site
			{
				OFFSET 0.000000 11.566666 0.000000
			}
		}
	}
	JOINT newVegas:ElvisFacialAnim_Joint
	{
		OFFSET 1.000000 -95.330101 -8.825800
		CHANNELS 3 Xrotation Yrotation Zrotation
		End Site
		{
			OFFSET 0.000000 35.315800 0.000000
		}
	}
}
MOTION
Frames: 4
Frame Time: 0.016667
7.048936 74.913429 -4.583917 43.533444 -82.022881 44.146170 -0.000000 0.000000 -0.000000 -32.603324 -16.717293 29.287680 55.996852 -9.340610 10.247557 -27.481959 1.514258 -28.444934 0.000000 -0.000000 0.000000 -0.000001 0.000001 -0.000001 -21.156135 11.983674 -33.400667 53.069829 6.470800 -10.067356 -38.053521 -1.635734 30.481850 0.000000 0.000001 -0.000000 -0.000002 0.000002 -0.000002 1.319521 4.341677 3.218944 1.685963 3.692195 0.960056 1.613184 3.756742 0.980636 -1.430299 3.662250 -0.519624 -1.430302 3.662247 -0.519628 -0.000000 0.000002 -0.000000 -1.430234 3.662235 -0.519630 -1.430312 3.662268 -0.519628 -0.000001 0.000001 -0.000000 -0.000000 0.000002 -0.000000 0.705582 8.677182 -8.120512 -7.703521 12.546970 -67.827795 -0.000005 -117.532447 0.000006 -2.759491 -37.106177 22.103085 -9.674876 0.269249 1.575492 21.035308 31.264723 -3.204871 -0.000001 0.000003 -0.000003 -2.849082 3.303452 -72.216341 3.992251 5.548928 -71.446723 -0.000002 -0.000000 -0.000002 -2.178478 6.191007 -74.467818 5.106529 5.803643 -82.676926 0.000001 -0.000000 -0.000000 -2.999868 7.957849 -88.252888 5.714713 5.849469 -88.662358 -0.000001 0.000003 -0.000002 0.216279 8.542526 -93.244301 6.059337 5.847335 -92.043793 0.000002 0.000002 0.000001 0.000001 0.000001 0.000001 0.000001 0.000001 0.000001 0.000000 0.000001 0.000001 -0.000002 -0.000001 0.000002 -0.000002 -0.000002 0.000002 -0.000002 -0.000001 0.000002 -0.000003 -0.000000 0.000001 0.563285 13.344022 9.556955 -10.871307 35.898634 46.529421 0.009532 101.265402 -0.009430 18.782677 12.790211 -36.872394 -6.752287 7.209107 -18.581244 21.136543 -37.182532 16.258960 0.000001 -0.000005 -0.000005 -3.537840 10.196866 38.911455 4.634941 -4.657120 89.726187 -0.000001 0.000002 0.000003 -5.052441 -1.676051 58.106345 3.618981 -4.540215 77.105760 0.000000 0.000000 -0.000001 -3.873842 -2.931518 61.582679 4.483705 -4.653921 87.863041 -0.000000 -0.000001 -0.000000 -1.856242 -4.598493 67.393948 2.939821 -4.329575 68.339758 0.000001 0.000001 0.000003 -0.000002 -0.000000 -0.000000 -0.000002 0.000001 0.000003 -0.000002 -0.000001 0.000003 0.000000 0.000000 0.000003 0.000000 0.000001 0.000002 0.000000 0.000000 0.000003 0.000001 0.000001 0.000002 0.000000 -0.000001 0.000000 0.000000 -0.000001 0.000000 0.000000 -0.000001 0.000000 0.000000 -0.000001 0.000000 0.000000 -0.000001 0.000000 0.000000 -0.000001 0.000000 0.000000 -0.000001 0.000000 0.000001 -0.000000 -0.000000 -0.000000 0.000000 -0.000000 
6.712340 75.316399 -4.434694 33.861585 -81.391703 34.309232 0.000000 -0.000001 -0.000000 -32.144735 -16.471826 29.227564 54.872169 -9.205398 10.288165 -27.622166 0.310712 -28.261878 0.000000 0.000000 0.000000 0.000001 -0.000001 0.000001 -19.986662 11.254915 -33.435152 52.817013 6.747199 -10.108603 -36.137312 -1.664459 31.132159 0.000000 -0.000002 0.000000 -0.000003 0.000000 -0.000000 1.314859 4.150604 3.450707 1.674578 3.524484 1.048239 1.609791 3.584459 1.064620 -1.197268 3.583776 -0.538567 -1.197266 3.583751 -0.538557 0.000000 0.000002 -0.000001 -1.197270 3.583777 -0.538572 -1.197275 3.583735 -0.538563 -0.000000 0.000001 0.000000 0.000000 0.000002 -0.000001 0.654794 7.533284 -7.402836 -5.403854 12.550871 -68.677743 0.000006 -118.249726 -0.000011 -3.995451 -36.802405 21.789518 -9.674870 0.269247 1.575496 21.019286 31.210290 -3.199429 0.000001 -0.000006 -0.000003 -2.853331 3.302263 -72.160908 3.986869 5.547124 -71.391138 -0.000002 0.000000 -0.000001 -2.182426 6.183190 -74.413156 5.100820 5.802911 -82.620530 -0.000001 -0.000000 0.000000 -3.005562 7.949371 -88.198376 5.708904 5.849313 -88.605428 -0.000003 0.000001 -0.000001 0.210124 8.537071 -93.188970 6.053623 5.847551 -91.987540 0.000005 0.000003 0.000000 -0.000001 -0.000000 0.000001 -0.000001 -0.000000 0.000001 -0.000002 0.000000 0.000001 -0.000000 0.000000 0.000001 -0.000000 -0.000001 0.000002 -0.000000 0.000000 0.000001 -0.000002 -0.000001 0.000001 0.654562 13.133329 8.324376 -11.309125 35.091364 48.626856 0.001173 101.896177 -0.001163 19.025794 12.710612 -36.950009 -6.752287 7.209107 -18.581246 21.103560 -37.132119 16.238843 -0.000000 -0.000006 0.000004 -3.540181 10.199002 38.856495 4.630431 -4.657082 89.670637 0.000000 0.000001 0.000001 -5.052157 -1.666583 58.052469 3.614505 -4.539161 77.048960 0.000001 -0.000001 -0.000001 -3.874712 -2.923190 61.528393 4.479129 -4.653753 87.806617 0.000001 0.000001 -0.000001 -1.858666 -4.592112 67.339067 2.935598 -4.327933 68.283805 -0.000001 0.000001 0.000002 0.000003 0.000002 -0.000002 0.000003 0.000001 -0.000002 0.000003 0.000001 -0.000002 0.000004 0.000003 -0.000003 0.000004 0.000003 -0.000003 0.000004 0.000003 -0.000003 0.000004 0.000003 -0.000003 0.000001 0.000001 -0.000000 0.000001 0.000001 -0.000000 0.000001 0.000001 -0.000000 0.000001 0.000001 -0.000000 0.000001 0.000001 -0.000000 0.000001 0.000001 -0.000000 0.000001 0.000001 -0.000000 0.000000 -0.000000 0.000000 0.000000 -0.000001 -0.000000 
6.174274 76.476128 -4.131882 23.726691 -79.777381 24.097578 0.000000 -0.000000 0.000000 -32.934588 -15.743065 28.780163 52.380041 -9.181613 10.394485 -24.894054 -3.321824 -28.852112 0.000000 -0.000000 -0.000001 -0.000002 -0.000000 0.000001 -18.274665 9.562563 -33.328489 51.202616 7.260623 -10.375529 -32.065730 -1.657521 31.932835 -0.000000 0.000002 -0.000001 -0.000002 0.000000 0.000002 1.189628 4.098440 3.689151 1.555125 3.451245 1.016177 1.491300 3.510694 1.023374 -1.022504 3.434159 -0.555640 -1.022501 3.434119 -0.555636 0.000001 -0.000001 -0.000001 -1.022428 3.434127 -0.555642 -1.022504 3.434136 -0.555636 -0.000000 0.000001 -0.000000 0.000001 -0.000001 -0.000000 0.633904 7.205965 -6.991784 -4.027032 9.964015 -67.472078 -0.000061 -118.092974 -0.000071 -4.207141 -36.031707 21.229145 -9.674872 0.269253 1.575500 20.999801 31.142470 -3.192781 0.000002 0.000004 -0.000006 -2.859069 3.300604 -72.091923 3.980181 5.544891 -71.321969 -0.000001 0.000004 -0.000002 -2.187325 6.173444 -74.345086 5.093728 5.802016 -82.550281 0.000001 -0.000002 0.000002 -3.012973 7.938780 -88.130498 5.701683 5.849142 -88.534565 0.000001 0.000001 -0.000000 0.202189 8.530289 -93.120081 6.046496 5.847792 -91.917537 -0.000004 -0.000003 0.000000 0.000001 -0.000001 -0.000000 0.000001 -0.000001 -0.000000 0.000000 0.000000 0.000000 -0.000004 0.000001 -0.000000 -0.000004 0.000002 0.000001 -0.000004 0.000001 -0.000000 -0.000006 0.000002 -0.000000 0.703595 12.600988 7.607050 -10.772620 34.147565 49.737663 -0.000013 103.261061 0.000004 18.711006 12.211367 -37.120647 -6.752287 7.209103 -18.581251 21.063258 -37.069072 16.214049 0.000000 0.000000 0.000001 -3.543105 10.201697 38.788091 4.624836 -4.657054 89.601529 -0.000000 0.000001 0.000002 -5.052100 -1.654616 57.985410 3.608914 -4.537898 76.978295 0.000000 0.000001 -0.000000 -3.875778 -2.912827 61.460781 4.473429 -4.653543 87.736382 0.000001 -0.000001 -0.000001 -1.861649 -4.584170 67.270731 2.930344 -4.325844 68.214158 -0.000002 0.000002 -0.000002 0.000005 0.000000 -0.000002 0.000005 0.000000 -0.000001 0.000005 0.000000 -0.000002 -0.000001 0.000001 -0.000001 -0.000001 0.000002 -0.000001 -0.000001 0.000001 -0.000001 -0.000001 0.000002 -0.000001 -0.000000 -0.000001 0.000000 -0.000000 -0.000001 0.000000 -0.000000 -0.000001 0.000000 -0.000000 -0.000001 0.000000 -0.000000 -0.000001 0.000000 -0.000000 -0.000001 0.000000 -0.000000 -0.000001 0.000000 -0.000000 -0.000000 -0.000000 0.000000 -0.000000 0.000000 
5.552202 78.121506 -3.825494 16.045682 -77.334974 16.394979 -0.000000 -0.000000 -0.000000 -34.461221 -14.507170 27.856343 48.858245 -9.147212 10.648336 -20.176507 -8.435893 -29.275991 0.000001 0.000000 -0.000002 -0.000000 -0.000001 -0.000004 -16.899526 7.670147 -32.964405 49.394883 7.846150 -10.580114 -25.818595 -1.348359 32.603276 -0.000001 0.000000 -0.000001 0.000001 0.000002 0.000000 0.982265 4.138007 3.881723 1.364926 3.425545 0.933034 1.299352 3.485002 0.928855 -0.859125 3.243861 -0.586672 -0.859127 3.243884 -0.586676 -0.000000 0.000000 -0.000000 -0.859058 3.243849 -0.586680 -0.859133 3.243866 -0.586676 -0.000000 -0.000002 -0.000001 -0.000000 0.000000 -0.000000 0.623447 7.184072 -6.717688 -3.255301 6.222734 -65.186287 0.000040 -117.506370 0.000024 -3.863570 -34.828542 20.605533 -9.674877 0.269253 1.575496 20.976978 31.061737 -3.185071 0.000000 -0.000002 0.000000 -2.866256 3.298521 -72.009892 3.972240 5.542207 -71.239679 0.000002 0.000003 -0.000003 -2.193124 6.161869 -74.264141 5.085282 5.800889 -82.466782 0.000002 0.000001 0.000000 -3.022129 7.926162 -88.049744 5.693091 5.848922 -88.450260 0.000000 0.000001 0.000001 0.192408 8.522213 -93.038132 6.037992 5.848068 -91.834250 0.000000 -0.000002 -0.000000 -0.000001 0.000000 -0.000001 -0.000001 0.000000 -0.000001 -0.000002 0.000001 -0.000001 -0.000003 -0.000001 -0.000002 -0.000002 0.000000 -0.000001 -0.000003 -0.000001 -0.000002 -0.000004 0.000000 -0.000002 0.732048 11.989978 7.098539 -9.801465 33.018907 50.192711 -0.000056 104.960036 0.000047 18.245355 11.392842 -37.011299 -6.752286 7.209107 -18.581244 21.015905 -36.993886 16.184926 -0.000001 -0.000004 -0.000001 -3.546600 10.204942 38.706747 4.618144 -4.657008 89.519348 0.000001 0.000003 0.000003 -5.052282 -1.640179 57.905702 3.602253 -4.536370 76.894215 0.000000 0.000001 0.000001 -3.877033 -2.900471 61.380417 4.466671 -4.653260 87.652835 0.000000 -0.000003 -0.000000 -1.865159 -4.574722 67.189493 2.924123 -4.323345 68.131321 -0.000001 0.000001 0.000001 -0.000000 -0.000001 0.000001 -0.000001 -0.000002 0.000002 -0.000000 -0.000001 0.000002 0.000001 0.000002 0.000003 0.000001 0.000002 0.000001 0.000001 0.000002 0.000003 0.000001 0.000002 0.000003 0.000001 0.000001 0.000000 0.000001 0.000001 0.000000 0.000001 0.000001 0.000000 0.000001 0.000001 0.000000 0.000001 0.000001 0.000000 0.000001 0.000001 0.000000 0.000001 0.000001 0.000000 -0.000000 -0.000001 0.000000 -0.000000 -0.000000 -0.000000 
